<svg width="18" height="20" viewBox="0 0 18 20" fill="black" xmlns="http://www.w3.org/2000/svg">
  <path d="M0.361992 18.7786C0.149786 18.562 0.0269775 18.2248 0.0269775 17.7881V2.21149C0.0269775 1.7748 0.149786 1.43759 0.361992 1.22101L0.414367 1.17346L9.36677 9.89854V10.1046L0.414367 18.8296L0.361992 18.7786Z"/>
  <path d="M13.4311 6.98871L10.4503 9.89853V10.1046L13.4348 13.0144L13.5016 12.9765L17.0359 11.0158C18.0446 10.4594 18.0446 9.54372 17.0359 8.98377L13.5016 7.02657L13.4311 6.98871Z"/>
  <path d="M12.9599 6.48474L9.90862 9.45971L0.903839 0.679174C1.23885 0.335806 1.78517 0.294425 2.40644 0.637793L12.9599 6.48474Z"/>
  <path d="M12.9599 13.5183L2.40644 19.3653C1.78517 19.7051 1.23885 19.6637 0.903839 19.3204L9.90862 10.5433L12.9599 13.5183Z"/>
</svg>
