<svg width="512" height="512" viewBox="0 0 512 512" fill="none" xmlns="http://www.w3.org/2000/svg">
<g clip-path="url(#clip0_3185_580)">
<rect width="512" height="512" rx="114" fill="#000091"/>
<rect x="146" y="135" width="226" height="235" fill="#E1000F"/>
<path fill-rule="evenodd" clip-rule="evenodd" d="M243.12 421.98C214.08 421.98 187.9 414.72 164.58 400.2C141.26 385.68 123 365.88 109.8 340.8C96.6 315.72 90 287.56 90 256.32C90 224.64 96.6 196.26 109.8 171.18C123 146.1 141.26 126.3 164.58 111.78C187.9 97.26 214.08 90 243.12 90C266 90 286.46 94.62 304.5 103.86C316.493 110.003 326.833 117.798 335.52 127.247V96.6H421.32V415.38H335.52V384.439C326.833 393.791 316.493 401.685 304.5 408.12C286.46 417.36 266 421.98 243.12 421.98ZM293.693 337.75C282.228 343.046 269.459 346 256 346C206.294 346 166 305.706 166 256C166 206.294 206.294 166 256 166C305.706 166 346 206.294 346 256C346 268.456 343.47 280.32 338.895 291.108L339 291C334.875 300.739 328.012 327.774 333.556 358C324.844 333.82 304.567 334.072 293.678 337.767L293.693 337.75Z" fill="white"/>
</g>
<defs>
<clipPath id="clip0_3185_580">
<rect width="512" height="512" fill="white"/>
</clipPath>
</defs>
</svg>
