<svg width="512" height="512" viewBox="0 0 512 512" fill="none" xmlns="http://www.w3.org/2000/svg">
  <g clip-path="url(#clip0_5_836)">
    <rect width="512" height="512" rx="114" fill="#000091"/>
    <path fill-rule="evenodd" clip-rule="evenodd" d="M243.066 90C275.232 90 303.227 100.703 327.057 122.108V97.015C327.057 96.0964 327.798 95.3514 328.72 95.3514H415.336C416.258 95.3514 417 96.0964 417 97.015V413.582C417 414.5 416.258 415.245 415.336 415.245H328.72C327.798 415.245 327.057 414.5 327.057 413.582V389.084C301.64 409.696 272.651 420 240.087 420C199.185 420 163.444 404.742 132.867 374.218C102.289 343.695 87 303.659 87 254.109C87 204.163 102.686 164.325 134.058 134.595C165.43 104.865 201.766 90 243.066 90ZM250.914 160.753C199.463 160.753 157.753 202.463 157.753 253.914C157.753 305.365 199.463 347.075 250.914 347.075C266.521 347.075 280.573 344.144 286.598 340.183C289.973 337.899 298.401 334.146 303.454 334.146L304.05 334.147C308.381 334.163 314.155 334.62 325.411 347.075C325.176 337.837 321.011 316.071 328.135 306.045C338.198 291.168 344.075 273.227 344.075 253.914C344.075 202.463 302.365 160.753 250.914 160.753Z" fill="white"/>
    <rect x="48" y="48" width="232" height="98" rx="49" fill="#6A6AF4"/>
    <path d="M79.416 122V71.6H94.248C104.76 71.6 111.168 76.784 111.168 85.28C111.168 89.384 109.296 92.912 105.768 95.216C111.096 97.592 114.048 101.912 114.048 107.168C114.048 116.384 106.92 122 95.328 122H79.416ZM94.464 80.096H89.64V91.472H94.464C98.352 91.472 100.656 89.384 100.656 85.712C100.656 82.184 98.352 80.096 94.464 80.096ZM95.904 99.968H89.64V113.504H95.904C100.656 113.504 103.536 110.984 103.536 106.736C103.536 102.416 100.656 99.968 95.904 99.968ZM125.26 122V71.6H154.636V80.096H135.484V92.048H151.756V100.544H135.484V113.504H154.636V122H125.26ZM163.107 80.888V71.6H204.435V80.888H188.883V122H178.659V80.888H163.107ZM202.947 122L222.027 71.6H235.419L254.499 122H243.627L238.803 108.896H218.643L213.819 122H202.947ZM221.811 100.184H235.635L228.723 81.248L221.811 100.184Z" fill="white"/>
  </g>
  <defs>
    <clipPath id="clip0_5_836">
      <rect width="512" height="512" fill="white"/>
    </clipPath>
  </defs>
</svg>
